<svg width="116" height="23" viewBox="0 0 116 23" fill="none" xmlns="http://www.w3.org/2000/svg">
<path d="M14.056 14.4H6.256L4.768 18H0.784L8.272 1.2H12.112L19.624 18H15.544L14.056 14.4ZM12.832 11.448L10.168 5.016L7.504 11.448H12.832ZM21.103 0.191999H24.847V18H21.103V0.191999ZM41.6418 5.088V15.84C41.6418 18.208 41.0258 19.968 39.7938 21.12C38.5618 22.272 36.7618 22.848 34.3938 22.848C33.1458 22.848 31.9618 22.696 30.8418 22.392C29.7218 22.088 28.7938 21.648 28.0578 21.072L29.5458 18.384C30.0898 18.832 30.7778 19.184 31.6098 19.44C32.4418 19.712 33.2738 19.848 34.1058 19.848C35.4018 19.848 36.3538 19.552 36.9618 18.96C37.5858 18.384 37.8978 17.504 37.8978 16.32V15.768C36.9218 16.84 35.5618 17.376 33.8178 17.376C32.6338 17.376 31.5458 17.12 30.5538 16.608C29.5778 16.08 28.8018 15.344 28.2258 14.4C27.6498 13.456 27.3618 12.368 27.3618 11.136C27.3618 9.904 27.6498 8.816 28.2258 7.872C28.8018 6.928 29.5778 6.2 30.5538 5.688C31.5458 5.16 32.6338 4.896 33.8178 4.896C35.6898 4.896 37.1138 5.512 38.0898 6.744V5.088H41.6418ZM34.5618 14.304C35.5538 14.304 36.3618 14.016 36.9858 13.44C37.6258 12.848 37.9458 12.08 37.9458 11.136C37.9458 10.192 37.6258 9.432 36.9858 8.856C36.3618 8.264 35.5538 7.968 34.5618 7.968C33.5698 7.968 32.7538 8.264 32.1138 8.856C31.4738 9.432 31.1538 10.192 31.1538 11.136C31.1538 12.08 31.4738 12.848 32.1138 13.44C32.7538 14.016 33.5698 14.304 34.5618 14.304ZM51.2704 18.192C49.9104 18.192 48.6864 17.912 47.5984 17.352C46.5264 16.776 45.6864 15.984 45.0784 14.976C44.4704 13.968 44.1664 12.824 44.1664 11.544C44.1664 10.264 44.4704 9.12 45.0784 8.112C45.6864 7.104 46.5264 6.32 47.5984 5.76C48.6864 5.184 49.9104 4.896 51.2704 4.896C52.6304 4.896 53.8464 5.184 54.9184 5.76C55.9904 6.32 56.8304 7.104 57.4384 8.112C58.0464 9.12 58.3504 10.264 58.3504 11.544C58.3504 12.824 58.0464 13.968 57.4384 14.976C56.8304 15.984 55.9904 16.776 54.9184 17.352C53.8464 17.912 52.6304 18.192 51.2704 18.192ZM51.2704 15.12C52.2304 15.12 53.0144 14.8 53.6224 14.16C54.2464 13.504 54.5584 12.632 54.5584 11.544C54.5584 10.456 54.2464 9.592 53.6224 8.952C53.0144 8.296 52.2304 7.968 51.2704 7.968C50.3104 7.968 49.5184 8.296 48.8944 8.952C48.2704 9.592 47.9584 10.456 47.9584 11.544C47.9584 12.632 48.2704 13.504 48.8944 14.16C49.5184 14.8 50.3104 15.12 51.2704 15.12Z" fill="#2F2E41"/>
<path d="M77.269 1.2L69.997 18H66.157L58.909 1.2H63.109L68.221 13.2L73.405 1.2H77.269ZM83.5908 18.192C82.2308 18.192 81.0068 17.912 79.9188 17.352C78.8468 16.776 78.0068 15.984 77.3988 14.976C76.7908 13.968 76.4868 12.824 76.4868 11.544C76.4868 10.264 76.7908 9.12 77.3988 8.112C78.0068 7.104 78.8468 6.32 79.9188 5.76C81.0068 5.184 82.2308 4.896 83.5908 4.896C84.9508 4.896 86.1668 5.184 87.2388 5.76C88.3108 6.32 89.1508 7.104 89.7588 8.112C90.3668 9.12 90.6708 10.264 90.6708 11.544C90.6708 12.824 90.3668 13.968 89.7588 14.976C89.1508 15.984 88.3108 16.776 87.2388 17.352C86.1668 17.912 84.9508 18.192 83.5908 18.192ZM83.5908 15.12C84.5508 15.12 85.3348 14.8 85.9428 14.16C86.5668 13.504 86.8788 12.632 86.8788 11.544C86.8788 10.456 86.5668 9.592 85.9428 8.952C85.3348 8.296 84.5508 7.968 83.5908 7.968C82.6308 7.968 81.8388 8.296 81.2148 8.952C80.5908 9.592 80.2788 10.456 80.2788 11.544C80.2788 12.632 80.5908 13.504 81.2148 14.16C81.8388 14.8 82.6308 15.12 83.5908 15.12ZM101.501 17.376C101.133 17.648 100.677 17.856 100.133 18C99.6053 18.128 99.0453 18.192 98.4533 18.192C96.9173 18.192 95.7253 17.8 94.8773 17.016C94.0453 16.232 93.6293 15.08 93.6293 13.56V8.256H91.6373V5.376H93.6293V2.232H97.3733V5.376H100.589V8.256H97.3733V13.512C97.3733 14.056 97.5093 14.48 97.7813 14.784C98.0693 15.072 98.4693 15.216 98.9813 15.216C99.5733 15.216 100.077 15.056 100.493 14.736L101.501 17.376ZM115.853 11.592C115.853 11.64 115.829 11.976 115.781 12.6H106.013C106.189 13.4 106.605 14.032 107.261 14.496C107.917 14.96 108.733 15.192 109.709 15.192C110.381 15.192 110.973 15.096 111.485 14.904C112.013 14.696 112.501 14.376 112.949 13.944L114.941 16.104C113.725 17.496 111.949 18.192 109.613 18.192C108.157 18.192 106.869 17.912 105.749 17.352C104.629 16.776 103.765 15.984 103.157 14.976C102.549 13.968 102.245 12.824 102.245 11.544C102.245 10.28 102.541 9.144 103.133 8.136C103.741 7.112 104.565 6.32 105.605 5.76C106.661 5.184 107.837 4.896 109.133 4.896C110.397 4.896 111.541 5.168 112.565 5.712C113.589 6.256 114.389 7.04 114.965 8.064C115.557 9.072 115.853 10.248 115.853 11.592ZM109.157 7.728C108.309 7.728 107.597 7.968 107.021 8.448C106.445 8.928 106.093 9.584 105.965 10.416H112.325C112.197 9.6 111.845 8.952 111.269 8.472C110.693 7.976 109.989 7.728 109.157 7.728Z" fill="#6C63FF"/>
</svg>
