<svg width="77" height="77" viewBox="0 0 77 77" fill="none" xmlns="http://www.w3.org/2000/svg">
<path d="M64.1667 6.41669H25.6667C23.9649 6.41669 22.3328 7.09273 21.1294 8.29608C19.926 9.49944 19.25 11.1315 19.25 12.8334V51.3334C19.25 53.0352 19.926 54.6673 21.1294 55.8706C22.3328 57.074 23.9649 57.75 25.6667 57.75H64.1667C65.8685 57.75 67.5006 57.074 68.7039 55.8706C69.9073 54.6673 70.5833 53.0352 70.5833 51.3334V12.8334C70.5833 11.1315 69.9073 9.49944 68.7039 8.29608C67.5006 7.09273 65.8685 6.41669 64.1667 6.41669ZM41.9233 46.4599L31.4192 35.9558L35.9558 31.4192L41.4934 36.9568L55.286 20.405L60.2172 24.5149L41.9233 46.4599V46.4599Z" fill="black"/>
<path d="M12.8334 70.5834H48.1251V64.1667H12.8334V25.6667H6.41675V64.1667C6.41675 67.7055 9.29462 70.5834 12.8334 70.5834Z" fill="black"/>
</svg>
