<svg width="665" height="500" viewBox="0 0 665 500" fill="none" xmlns="http://www.w3.org/2000/svg">
<g clip-path="url(#clip0_8_283)">
<path opacity="0.4" d="M561.255 192.23C570.055 192.23 577.189 185.094 577.189 176.29C577.189 167.487 570.055 160.35 561.255 160.35C552.455 160.35 545.321 167.487 545.321 176.29C545.321 185.094 552.455 192.23 561.255 192.23Z" fill="#6C63FF"/>
<path opacity="0.4" d="M225.295 104.533C237.84 104.533 248.01 94.3598 248.01 81.8101C248.01 69.2604 237.84 59.0868 225.295 59.0868C212.75 59.0868 202.58 69.2604 202.58 81.8101C202.58 94.3598 212.75 104.533 225.295 104.533Z" fill="#6C63FF"/>
<path opacity="0.4" d="M183.256 108.603C192.056 108.603 199.19 101.467 199.19 92.663C199.19 83.8594 192.056 76.7228 183.256 76.7228C174.455 76.7228 167.321 83.8594 167.321 92.663C167.321 101.467 174.455 108.603 183.256 108.603Z" fill="#6C63FF"/>
<path d="M574.6 354.543C562.01 368.332 561.553 388.419 561.553 388.419C561.553 388.419 581.509 386.149 594.099 372.36C606.689 358.57 607.146 338.484 607.146 338.484C607.146 338.484 587.191 340.754 574.6 354.543Z" fill="#3F3D56"/>
<path d="M581.712 358.511C577.902 376.793 561.888 388.919 561.888 388.919C561.888 388.919 552.05 371.402 555.86 353.119C559.67 334.837 575.684 322.712 575.684 322.712C575.684 322.712 585.522 340.228 581.712 358.511Z" fill="#6C63FF"/>
<path d="M565.36 169.859V387.804L492.739 447.819H121.211V219.344L229.617 169.859H565.36Z" fill="#3F3D56"/>
<path opacity="0.1" d="M565.36 169.859V170.732L539.29 188.189L492.739 219.344H121.211L229.617 169.859H565.36Z" fill="black"/>
<path opacity="0.1" d="M565.36 169.859V387.804L492.739 447.819L493.265 218.818L539.29 188.189L564.94 169.859H565.36Z" fill="black"/>
<path d="M467.479 199.866H241.195L258.035 190.389H474.847L467.479 199.866Z" fill="#2F2E41"/>
<path d="M662.778 459.673C662.778 459.673 667.165 478.025 663.177 478.823C659.189 479.621 639.648 479.363 634.862 480.161C630.077 480.959 620.107 479.621 620.107 476.03C620.107 472.44 630.476 470.046 630.476 470.046C630.476 470.046 645.231 462.067 645.63 461.668C646.029 461.269 662.778 459.673 662.778 459.673Z" fill="#2F2E41"/>
<path d="M659.189 351.558C659.189 351.558 657.993 365.122 657.993 366.319C657.993 367.516 659.189 386.266 657.993 387.064C656.796 387.862 658.791 393.448 658.791 395.442C658.791 397.437 665.171 430.55 663.576 443.316C661.981 456.083 665.969 454.886 664.773 456.083C663.576 457.28 663.576 457.28 663.576 459.673C663.576 462.067 650.815 464.062 650.815 464.062L636.856 375.894L644.035 349.563L659.189 351.558Z" fill="#575A89"/>
<path opacity="0.1" d="M659.189 351.558C659.189 351.558 657.993 365.122 657.993 366.319C657.993 367.516 659.189 386.266 657.993 387.064C656.796 387.862 658.791 393.448 658.791 395.442C658.791 397.437 665.171 430.55 663.576 443.316C661.981 456.083 665.969 454.886 664.773 456.083C663.576 457.28 663.576 457.28 663.576 459.673C663.576 462.067 650.815 464.062 650.815 464.062L636.856 375.894L644.035 349.563L659.189 351.558Z" fill="black"/>
<path d="M657.195 465.259C657.195 465.259 661.183 479.621 657.195 480.419C653.207 481.217 633.666 479.505 628.88 480.302C624.095 481.1 614.125 481.217 614.125 477.626C614.125 474.035 624.494 471.642 624.494 471.642C624.494 471.642 639.249 463.663 639.648 463.264C640.047 462.865 657.195 465.259 657.195 465.259Z" fill="#2F2E41"/>
<path d="M662.778 335.6C662.778 335.6 667.564 347.169 661.981 353.154C656.398 359.138 650.017 371.106 650.017 371.904C650.017 372.702 661.183 452.093 659.588 457.28C657.993 462.466 658.392 465.658 658.79 466.455C659.189 467.253 654.802 471.642 650.017 471.642C645.231 471.642 638.053 468.051 637.255 464.86C636.458 461.668 638.452 434.14 638.053 428.954C637.654 423.768 635.66 416.188 634.862 414.592C634.065 412.996 629.678 411.4 628.88 406.613C628.083 401.826 621.702 340.786 623.696 338.791C625.69 336.797 662.778 335.6 662.778 335.6Z" fill="#575A89"/>
<path d="M632.47 243.841C639.958 243.841 646.029 237.768 646.029 230.277C646.029 222.786 639.958 216.713 632.47 216.713C624.981 216.713 618.91 222.786 618.91 230.277C618.91 237.768 624.981 243.841 632.47 243.841Z" fill="#FFB9B9"/>
<path d="M640.844 237.059C640.844 237.059 638.053 251.82 640.047 253.416C642.041 255.012 624.892 257.406 624.892 257.406C624.892 257.406 622.898 237.857 622.499 235.862C622.101 233.868 640.844 237.059 640.844 237.059Z" fill="#FFB9B9"/>
<path d="M622.5 256.209C622.5 256.209 627.285 242.246 646.826 246.235C646.826 246.235 650.416 247.432 649.219 248.629C648.023 249.826 646.826 249.826 648.422 251.022C650.017 252.219 652.011 251.022 650.814 252.219C649.618 253.416 661.582 260.597 660.784 274.161C659.987 287.726 663.576 306.875 660.784 310.067C657.993 313.259 662.778 327.222 661.981 330.014C661.183 332.807 666.766 336.398 664.374 337.595C661.981 338.791 618.91 345.972 617.714 337.595C616.518 329.217 617.315 335.201 616.119 333.206C614.922 331.211 614.524 327.621 615.321 323.232C616.119 318.844 618.113 308.072 617.315 304.083C616.518 300.093 617.315 266.581 619.708 262.592C622.101 258.603 622.5 256.209 622.5 256.209Z" fill="#6C63FF"/>
<path d="M630.874 353.553C630.874 353.553 636.856 376.293 629.279 376.293C621.702 376.293 622.101 352.755 622.101 352.755L630.874 353.553Z" fill="#FFB9B9"/>
<path d="M626.488 230.277C626.488 231.434 628.163 232.168 630.759 232.336H630.763C631.863 232.398 632.967 232.377 634.065 232.272C635.724 232.12 636.41 233.68 636.693 235.739C637.156 239.134 636.509 243.893 637.255 244.639C638.284 245.669 645.786 244.635 648.13 242.301C648.495 241.974 648.739 241.532 648.82 241.049C649.066 239.624 649.769 238.317 650.822 237.326C652.206 235.814 654.176 234.139 656.398 231.474C660.386 226.687 656.398 226.288 655.201 222.697C654.005 219.106 652.011 217.91 652.011 215.516C652.011 213.122 642.838 211.127 635.261 211.526C627.684 211.925 629.279 221.5 629.279 221.5C629.279 221.5 628.829 222.657 628.29 224.149C627.562 226.022 626.97 227.944 626.519 229.902C626.501 230.026 626.49 230.151 626.488 230.277Z" fill="#2F2E41"/>
<path opacity="0.1" d="M628.083 262.193C628.083 262.193 641.642 261.395 642.838 281.343C644.035 301.29 643.636 320.041 643.636 320.44C643.636 320.839 638.053 358.739 632.868 358.739C627.684 358.739 623.696 357.941 622.5 355.946C621.303 353.952 625.69 325.227 625.69 325.227C625.69 325.227 627.684 294.907 624.494 285.332C621.303 275.757 620.904 263.39 628.083 262.193Z" fill="black"/>
<path d="M626.089 260.198C626.089 260.198 639.648 259.4 640.844 279.348C642.041 299.295 641.642 318.046 641.642 318.445C641.642 318.844 636.059 356.744 630.874 356.744C625.69 356.744 621.702 355.946 620.506 353.952C619.309 351.957 623.696 323.232 623.696 323.232C623.696 323.232 625.69 292.912 622.5 283.337C619.309 273.763 618.91 261.395 626.089 260.198Z" fill="#6C63FF"/>
<path d="M401.247 65.1866C401.247 65.1866 395.338 48.4377 391.07 53.6922C386.803 58.9468 397.636 67.8139 397.636 67.8139L401.247 65.1866Z" fill="#A0616A"/>
<path d="M429.152 48.7661L425.597 50.084C425.597 50.084 423.899 57.6332 424.555 58.9468C425.212 60.2604 425.54 59.2752 424.555 61.9025C423.571 64.5298 420.616 71.4264 420.288 72.4116C419.959 73.3969 401.247 66.1718 401.247 62.5593C401.247 62.5593 397.308 67.1571 395.338 68.1423C395.338 68.1423 417.005 83.906 419.959 85.8765C422.914 87.8469 424.555 86.8617 427.182 84.5628C429.808 82.264 440.97 63.2161 440.97 63.2161L429.152 48.7661Z" fill="#575A89"/>
<path d="M419.631 165.352C419.631 165.352 419.96 168.964 420.616 169.293C421.273 169.621 426.197 177.831 420.616 179.473C415.035 181.115 411.752 180.459 410.439 181.116C409.126 181.772 386.146 183.086 385.818 179.473C385.489 175.861 396.979 175.204 396.979 175.204C396.979 175.204 407.485 168.308 409.126 164.695C410.768 161.082 419.631 165.352 419.631 165.352Z" fill="#2F2E41"/>
<path d="M486.274 171.92C486.274 171.92 494.152 185.385 492.183 187.027C490.213 188.669 471.03 194.653 468.218 194.909C464.607 195.237 461.98 192.282 464.935 190.639C467.889 188.997 474.127 182.101 474.127 179.802V173.891L486.274 171.92Z" fill="#2F2E41"/>
<path d="M493.824 83.906C493.824 83.906 500.718 92.4447 489.885 106.238L471.829 129.227C471.829 129.227 482.991 146.961 483.319 156.156C483.647 165.352 485.945 163.381 486.602 167.322C487.258 171.263 490.213 169.293 487.915 172.248C485.617 175.204 477.082 177.831 474.455 175.533C473.552 174.706 472.846 173.686 472.392 172.549C471.937 171.412 471.745 170.186 471.829 168.964C471.829 167.651 467.233 160.097 466.905 157.798C466.576 155.5 454.43 136.78 454.43 136.78C454.43 136.78 450.49 125.614 455.086 119.374C459.682 113.135 462.719 104.285 462.719 104.285C462.719 104.285 449.177 120.688 439.657 124.629C439.657 124.629 436.046 125.286 436.702 126.928C437.359 128.57 436.702 129.555 435.717 131.197C434.732 132.839 427.838 151.887 425.54 156.813C423.242 161.739 424.227 164.695 421.601 166.337C418.975 167.979 407.156 166.666 407.156 165.023C407.156 163.381 408.798 159.112 409.783 156.813C410.767 154.514 418.646 127.913 417.99 123.315C417.333 118.718 418.318 112.478 423.242 109.85C428.167 107.223 453.117 85.8765 454.43 85.8765C455.743 85.8765 493.824 83.906 493.824 83.906Z" fill="#2F2E41"/>
<path d="M427.838 32.3455C435.453 32.3455 441.626 26.1701 441.626 18.5523C441.626 10.9345 435.453 4.75905 427.838 4.75905C420.223 4.75905 414.05 10.9345 414.05 18.5523C414.05 26.1701 420.223 32.3455 427.838 32.3455Z" fill="#A0616A"/>
<path d="M439 19.8659C439 19.8659 443.268 27.4194 448.521 28.4046C453.773 29.3899 434.733 44.4968 434.733 44.4968C434.733 44.4968 430.137 30.0467 426.197 29.3899C422.258 28.7331 439 19.8659 439 19.8659Z" fill="#A0616A"/>
<path d="M425.541 50.7365C425.541 55.0059 438.344 67.1571 438.344 67.1571L450.49 77.3378C450.49 77.3378 450.819 80.9503 452.132 81.2787C453.445 81.6071 455.086 81.6071 453.773 83.5776C452.46 85.548 449.177 89.8174 452.132 90.4742C453.023 90.6097 453.92 90.6952 454.82 90.7304C455.608 90.7763 456.534 90.819 457.575 90.8584C460.004 90.9438 463.044 90.9997 466.337 90.9767C467.272 90.9734 468.224 90.9624 469.193 90.9438C481.605 90.6975 495.984 89.2689 494.809 84.5628C492.839 76.681 494.153 74.0537 489.885 69.7843C485.617 65.515 478.723 50.7365 478.723 50.7365C478.723 50.7365 464.935 27.4194 453.445 27.4194L451.058 26.7921C449.949 26.4998 448.777 26.5639 447.706 26.9753C446.636 27.3867 445.721 28.1246 445.093 29.0844C442.789 32.5951 439.155 37.8694 437.031 39.5705C433.748 42.1978 433.236 40.3127 433.236 40.3127C433.236 40.3127 425.541 46.4672 425.541 50.7365Z" fill="#575A89"/>
<path d="M454.758 100.655C454.758 100.655 445.238 115.433 451.147 118.061C457.056 120.688 460.339 102.625 460.339 102.625L454.758 100.655Z" fill="#A0616A"/>
<path d="M436.852 16.9943C436.323 16.9275 436.156 16.2596 436.067 15.7335C435.59 12.9163 433.491 10.2449 430.671 9.79008C429.594 9.64664 428.498 9.735 427.457 10.0493C425.966 10.4586 424.566 11.1478 423.332 12.0803C422.728 12.6323 422.03 13.071 421.271 13.3751C420.753 13.5271 418.556 14.5042 418.043 14.6695C416.915 15.0329 415.981 16.2146 414.819 15.9806C413.707 15.7568 413.284 14.4135 413.106 13.2931C412.698 10.7404 414.159 6.93158 415.611 4.79341C416.713 3.17084 418.578 2.23704 420.442 1.62954C422.627 0.966249 424.871 0.520124 427.143 0.297632C430.21 -0.0647066 433.386 -0.256947 436.325 0.691394C439.264 1.63973 441.941 3.95959 442.489 6.99979C442.604 7.63309 442.625 8.28177 442.765 8.90987C443.107 10.4421 444.12 11.7301 444.711 13.1843C445.138 14.2523 445.336 15.3979 445.293 16.5472C445.249 17.6965 444.966 18.824 444.46 19.8569C443.642 21.5038 442.218 23.0863 442.525 24.8997L439.992 22.9014C439.626 22.6933 439.342 22.3659 439.188 21.9738C439.035 21.5818 439.02 21.1487 439.146 20.7471L439.515 17.5738C439.642 16.9989 439.585 16.3983 439.35 15.8581C438.224 13.8904 437.735 17.1057 436.852 16.9943Z" fill="#2F2E41"/>
<path opacity="0.1" d="M460.667 77.9946L457.575 90.8585C460.694 90.9701 464.82 91.0292 469.193 90.9438C470.296 87.6335 471.35 84.1819 472.157 80.9503C475.112 69.1275 470.188 51.0649 467.561 42.5263C464.935 33.9876 458.369 31.6887 458.369 31.6887C455.678 32.6357 453.135 33.9628 450.819 35.6296C446.551 38.5853 460.667 77.9946 460.667 77.9946Z" fill="black"/>
<path opacity="0.1" d="M458.041 77.3378L454.82 90.7304C455.608 90.7764 456.534 90.8191 457.575 90.8585C460.004 90.9438 463.044 90.9997 466.337 90.9767C467.522 87.4594 468.668 83.7484 469.531 80.2935C472.486 68.4707 467.561 50.4081 464.935 41.8694C462.309 33.3308 456.564 42.6904 456.564 42.6904C456.564 42.6904 458.862 37.1075 454.594 40.0632C450.326 43.0189 458.041 77.3378 458.041 77.3378Z" fill="black"/>
<path d="M457.056 31.0319C457.056 31.0319 463.622 33.3308 466.248 41.8694C468.874 50.4081 473.799 68.4707 470.844 80.2935C467.89 92.1163 461.652 106.895 461.652 106.895C461.652 106.895 455.415 102.297 453.117 103.282L459.354 77.3378C459.354 77.3378 445.238 37.9285 449.505 34.9728C451.822 33.3059 454.364 31.9789 457.056 31.0319Z" fill="#575A89"/>
<path d="M461.95 195.76L371.123 6.41966L219.254 79.3259L275.108 195.76H461.95Z" fill="#F2F2F2"/>
<path d="M340.388 80.74L259.725 119.463L262.127 124.472L342.79 85.7486L340.388 80.74Z" fill="#3F3D56"/>
<path d="M361.744 125.26L281.081 163.984L283.484 168.992L364.147 130.269L361.744 125.26Z" fill="#3F3D56"/>
<path d="M376.414 54.5445L356.388 64.1585L365.998 84.1927L386.025 74.5787L376.414 54.5445Z" fill="#3F3D56"/>
<path d="M397.771 99.065L377.744 108.679L387.355 128.713L407.381 119.099L397.771 99.065Z" fill="#3F3D56"/>
<path d="M377.794 40.6676L369.546 64.1428L358.428 60.2334L356.907 64.5639L372.339 69.9895L382.122 42.1896L377.794 40.6676Z" fill="#57B894"/>
<path d="M399.15 85.1878L390.903 108.663L379.785 104.754L378.264 109.084L393.695 114.51L403.479 86.7098L399.15 85.1878Z" fill="#57B894"/>
<path d="M8.76532 413.679L49.8 404.91L41.0347 363.86L-3.88289e-05 372.629L8.76532 413.679Z" fill="#F2F2F2"/>
<path d="M48.6589 352.892C48.6589 352.892 33.5867 363.662 38.6108 367.97C43.6348 372.278 53.6829 355.046 53.6829 355.046L48.6589 352.892Z" fill="#FFB9B9"/>
<path d="M118.278 369.406C118.278 369.406 115.407 405.305 114.689 410.331C113.972 415.357 113.254 460.59 111.818 465.616C110.383 470.642 108.948 482.848 108.948 482.848H100.335C100.335 482.848 101.053 460.59 98.8995 451.974C96.7463 443.359 97.464 419.665 97.464 419.665C97.464 419.665 93.1577 377.303 95.3109 371.56C97.4641 365.816 118.278 369.406 118.278 369.406Z" fill="#FFB9B9"/>
<path d="M106.794 480.694C106.794 480.694 110.383 482.848 110.383 484.284C110.383 485.72 109.665 489.31 110.383 490.746C111.101 492.182 116.125 497.926 113.254 499.362C110.383 500.798 97.4639 499.362 97.4639 499.362C97.4639 499.362 98.1816 489.31 98.8993 488.592C99.617 487.874 98.1816 480.694 98.1816 480.694H106.794Z" fill="#2F2E41"/>
<path d="M63.4121 368.526C63.4121 368.526 62.5003 404.528 62.6867 409.602C62.8731 414.675 58.8407 459.734 59.7408 464.883C60.641 470.032 60.7878 482.321 60.7878 482.321L69.3529 483.226C69.3529 483.226 70.9746 461.016 74.0199 452.673C77.0652 444.331 78.8375 420.693 78.8375 420.693C78.8375 420.693 87.5649 379.018 86.0263 373.079C84.4877 367.141 63.4121 368.526 63.4121 368.526Z" fill="#FFB9B9"/>
<path d="M63.1553 480.405C63.1553 480.405 59.3605 482.171 59.2098 483.599C59.0591 485.027 59.3962 488.672 58.5318 490.025C57.6673 491.377 52.0684 496.562 54.7727 498.292C57.4771 500.021 70.4754 499.95 70.4754 499.95C70.4754 499.95 70.8163 489.878 70.1779 489.088C69.5395 488.299 71.7204 481.31 71.7204 481.31L63.1553 480.405Z" fill="#2F2E41"/>
<path d="M108.23 315.556C108.23 315.556 113.972 316.274 116.125 328.48C118.278 340.686 126.173 371.56 119.713 373.713C113.254 375.867 93.8754 380.175 93.1576 378.739C92.4399 377.303 91.0045 373.713 91.0045 373.713C91.0045 373.713 93.1576 380.175 90.2868 380.175C87.4159 380.175 59.4248 375.867 60.1425 373.713C60.8602 371.56 62.2956 355.764 62.2956 355.764C62.2956 355.764 66.6019 329.198 70.9083 324.89C72.1545 323.693 73.1221 322.236 73.7423 320.623C74.3625 319.01 74.6201 317.28 74.4969 315.556H108.23Z" fill="#2F2E41"/>
<path d="M118.996 309.812C118.996 309.812 109.665 307.658 108.23 310.53C106.794 313.402 111.818 317.71 113.971 317.71C116.125 317.71 119.713 315.556 119.713 315.556L118.996 309.812Z" fill="#FFB9B9"/>
<path d="M99.617 248.783C106.752 248.783 112.536 242.997 112.536 235.859C112.536 228.722 106.752 222.936 99.617 222.936C92.482 222.936 86.698 228.722 86.698 235.859C86.698 242.997 92.482 248.783 99.617 248.783Z" fill="#FFB9B9"/>
<path d="M97.4639 245.193C97.4639 245.193 95.3107 255.245 96.7461 255.245C98.1816 255.245 85.9803 261.707 85.9803 261.707L76.6499 260.271L73.7791 255.963C73.7791 255.963 88.8512 245.911 88.8512 240.167C88.8512 234.423 97.4639 245.193 97.4639 245.193Z" fill="#FFB9B9"/>
<path d="M91.0045 255.245C91.0045 255.245 93.1576 253.809 93.8754 253.809H99.6171C100.335 253.809 109.665 255.963 109.665 255.963L115.407 288.273C115.407 288.273 105.359 304.786 112.536 317.71C112.536 317.71 110.383 316.274 100.335 316.992C90.2867 317.71 72.3437 319.864 71.626 319.864C70.9083 319.864 70.9083 314.12 71.626 312.684C72.3437 311.248 70.9083 311.966 70.9083 308.376C70.9083 304.786 68.7551 298.325 68.7551 298.325L58.707 261.707C58.707 261.707 71.626 254.527 73.7792 255.245C75.9324 255.963 82.3918 258.117 83.8273 257.399C85.2627 256.681 91.0045 255.245 91.0045 255.245Z" fill="#6C63FF"/>
<path d="M107.512 256.681L109.665 255.963C109.665 255.963 113.971 255.245 118.995 259.553C124.02 263.861 142.68 276.785 142.68 276.785C142.68 276.785 149.858 282.529 147.704 288.991C145.551 295.453 141.963 311.248 131.197 310.53C131.197 310.53 124.737 319.146 121.149 317.71C117.56 316.274 114.689 310.53 116.842 309.812C118.996 309.094 124.737 301.915 124.737 301.915L117.56 288.273H115.407L107.512 283.965L107.512 256.681Z" fill="#6C63FF"/>
<path d="M64.4487 260.989L58.707 261.707C58.707 261.707 53.6829 263.861 54.4007 273.195C55.1184 282.529 50.0943 324.89 52.2475 329.916C52.2475 329.916 45.0703 354.328 46.5057 355.046C47.9412 355.764 56.5538 360.072 55.8361 357.2C55.1184 354.328 63.731 334.224 63.731 334.224C63.731 334.224 73.7792 323.454 69.4728 308.376V296.171L64.4487 260.989Z" fill="#6C63FF"/>
<path d="M110.369 248.354L101.245 250.343L100.073 245.848L100.523 250.5L85.8042 253.708L85.1569 251.227L85.4057 253.795L75.9782 255.849L73.9615 236.483C71.8881 228.536 79.4552 220.066 87.3993 217.992L90.9234 217.071C96.7581 215.548 107.364 216.933 108.887 222.77C106.221 232.946 101.678 244.103 110.369 248.354Z" fill="#2F2E41"/>
</g>
<defs>
<clipPath id="clip0_8_283">
<rect width="665" height="500" fill="white"/>
</clipPath>
</defs>
</svg>
