<svg width="85" height="85" viewBox="0 0 85 85" fill="none" xmlns="http://www.w3.org/2000/svg">
<path d="M63.75 46.0416H61.3417L54.2583 53.125H61.0229L67.2917 60.2083H17.7083L24.0125 53.125H31.2729L24.1896 46.0416H21.25L10.625 56.6666V70.8333C10.625 74.7291 13.7771 77.9166 17.6729 77.9166H67.2917C69.1703 77.9166 70.972 77.1704 72.3003 75.842C73.6287 74.5136 74.375 72.7119 74.375 70.8333V56.6666L63.75 46.0416ZM67.2917 70.8333H17.7083V67.2916H67.2917V70.8333ZM40.1625 53.1958C41.5438 54.5771 43.775 54.5771 45.1563 53.1958L67.6813 30.6708C68.0096 30.3432 68.2701 29.954 68.4478 29.5255C68.6255 29.0971 68.717 28.6378 68.717 28.1739C68.717 27.7101 68.6255 27.2508 68.4478 26.8223C68.2701 26.3939 68.0096 26.0047 67.6813 25.6771L50.15 8.14581C49.8305 7.81148 49.447 7.54474 49.0225 7.36142C48.5979 7.17811 48.1408 7.08194 47.6783 7.07864C47.2159 7.07534 46.7575 7.16496 46.3303 7.3422C45.9031 7.51943 45.5159 7.78066 45.1917 8.11039L22.6312 30.6708C22.3029 30.9985 22.0424 31.3876 21.8647 31.8161C21.687 32.2445 21.5955 32.7038 21.5955 33.1677C21.5955 33.6315 21.687 34.0908 21.8647 34.5193C22.0424 34.9477 22.3029 35.3369 22.6312 35.6646L40.1625 53.1958ZM47.6708 15.6187L60.2083 28.1562L42.6771 45.6875L30.1396 33.15L47.6708 15.6187V15.6187Z" fill="black"/>
</svg>
