<svg width="79" height="79" viewBox="0 0 79 79" fill="none" xmlns="http://www.w3.org/2000/svg">
<path d="M70.2222 32.9167H68.0278V19.75C68.0278 19.168 67.7966 18.6098 67.385 18.1983C66.9735 17.7867 66.4153 17.5555 65.8333 17.5555H13.1667C12.647 17.564 12.1413 17.3878 11.7394 17.0583C11.3376 16.7288 11.0657 16.2673 10.9722 15.7561V14.9661C11.0657 14.4549 11.3376 13.9934 11.7394 13.6639C12.1413 13.3344 12.647 13.1582 13.1667 13.1667H64.9117C65.4937 13.1667 66.0518 12.9355 66.4634 12.5239C66.8749 12.1124 67.1061 11.5542 67.1061 10.9722C67.1061 10.3902 66.8749 9.83205 66.4634 9.42051C66.0518 9.00897 65.4937 8.77777 64.9117 8.77777H13.1667C11.4207 8.77777 9.74616 9.47137 8.51154 10.706C7.27693 11.9406 6.58333 13.6151 6.58333 15.3611C6.56793 15.6242 6.56793 15.888 6.58333 16.1511V61.2908C6.59194 62.4724 6.8332 63.6406 7.29333 64.7289C7.75346 65.8172 8.42345 66.8042 9.26504 67.6336C10.1066 68.463 11.1033 69.1184 12.1983 69.5626C13.2932 70.0068 14.4648 70.2309 15.6464 70.2222H65.8333C66.4153 70.2222 66.9735 69.991 67.385 69.5795C67.7966 69.1679 68.0278 68.6098 68.0278 68.0278V54.8611H70.2222C70.8042 54.8611 71.3624 54.6299 71.7739 54.2184C72.1855 53.8068 72.4167 53.2487 72.4167 52.6667V35.1111C72.4167 34.5291 72.1855 33.9709 71.7739 33.5594C71.3624 33.1479 70.8042 32.9167 70.2222 32.9167ZM63.6389 65.8333H15.6464C14.4258 65.8451 13.25 65.3745 12.3747 64.5238C11.4993 63.6731 10.9953 62.5112 10.9722 61.2908V21.6811C11.6845 21.8875 12.4257 21.9765 13.1667 21.9444H63.6389V32.9167H48.2778C45.3678 32.9167 42.5769 34.0727 40.5192 36.1303C38.4616 38.188 37.3056 40.9789 37.3056 43.8889C37.3056 46.7989 38.4616 49.5897 40.5192 51.6474C42.5769 53.7051 45.3678 54.8611 48.2778 54.8611H63.6389V65.8333ZM68.0278 50.4722H48.2778C46.5318 50.4722 44.8573 49.7786 43.6227 48.544C42.388 47.3094 41.6944 45.6349 41.6944 43.8889C41.6944 42.1429 42.388 40.4684 43.6227 39.2338C44.8573 37.9991 46.5318 37.3055 48.2778 37.3055H68.0278V50.4722Z" fill="black"/>
<path d="M50.4941 47.1806C52.312 47.1806 53.7857 45.7068 53.7857 43.8889C53.7857 42.071 52.312 40.5972 50.4941 40.5972C48.6761 40.5972 47.2024 42.071 47.2024 43.8889C47.2024 45.7068 48.6761 47.1806 50.4941 47.1806Z" fill="black"/>
</svg>
